<mxfile host="app.diagrams.net" modified="2022-02-17T04:36:55.596Z" agent="5.0 (Windows NT 10.0; Win64; x64) AppleWebKit/537.36 (KHTML, like Gecko) Chrome/98.0.4758.102 Safari/537.36" etag="YJrnQG4H9AuiF10Ug51B" version="16.5.6" type="github">
  <diagram id="p0w3NWP9c2cCyxxNbRGb" name="Page-1">
    <mxGraphModel dx="2031" dy="1053" grid="1" gridSize="10" guides="1" tooltips="1" connect="1" arrows="1" fold="1" page="1" pageScale="2" pageWidth="827" pageHeight="1169" math="0" shadow="0">
      <root>
        <mxCell id="0" />
        <mxCell id="1" parent="0" />
        <mxCell id="N3aK5_HJuDLDFrdPinQ0-10" value="Proxy Server" style="fillColor=none;strokeColor=#5A6C86;dashed=1;verticalAlign=top;fontStyle=0;fontColor=#5A6C86;fontSize=15;" vertex="1" parent="1">
          <mxGeometry x="685" y="466" width="160" height="314" as="geometry" />
        </mxCell>
        <mxCell id="rlilxc9jHkQiimYPmj73-1" value="&lt;font style=&quot;font-size: 15px&quot;&gt;dawncho.com&lt;/font&gt;" style="sketch=0;outlineConnect=0;fontColor=#232F3E;gradientColor=none;fillColor=#232F3D;strokeColor=none;dashed=0;verticalLabelPosition=bottom;verticalAlign=top;align=center;html=1;fontSize=12;fontStyle=0;aspect=fixed;pointerEvents=1;shape=mxgraph.aws4.client;" parent="1" vertex="1">
          <mxGeometry x="920" y="570" width="78" height="76" as="geometry" />
        </mxCell>
        <mxCell id="rlilxc9jHkQiimYPmj73-2" value="Users DataBase" style="sketch=0;outlineConnect=0;fontColor=#232F3E;gradientColor=none;fillColor=#232F3D;strokeColor=none;dashed=0;verticalLabelPosition=bottom;verticalAlign=top;align=center;html=1;fontSize=12;fontStyle=0;aspect=fixed;pointerEvents=1;shape=mxgraph.aws4.forums;" parent="1" vertex="1">
          <mxGeometry x="1290" y="570" width="78" height="76" as="geometry" />
        </mxCell>
        <mxCell id="rlilxc9jHkQiimYPmj73-4" value="&lt;span style=&quot;color: rgb(0 , 0 , 0) ; font-size: 15px ; background-color: rgb(255 , 255 , 255)&quot;&gt;dawncho.com&lt;/span&gt;&lt;b style=&quot;color: rgb(0 , 0 , 0) ; font-size: 15px ; background-color: rgb(255 , 255 , 255)&quot;&gt;&lt;i&gt;/join&lt;/i&gt;&lt;/b&gt;" style="sketch=0;outlineConnect=0;fontColor=#232F3E;gradientColor=none;fillColor=#232F3D;strokeColor=none;dashed=0;verticalLabelPosition=bottom;verticalAlign=top;align=center;html=1;fontSize=12;fontStyle=0;aspect=fixed;pointerEvents=1;shape=mxgraph.aws4.gear;" parent="1" vertex="1">
          <mxGeometry x="920" y="840" width="78" height="78" as="geometry" />
        </mxCell>
        <mxCell id="rlilxc9jHkQiimYPmj73-5" value="&lt;font style=&quot;font-size: 15px&quot;&gt;dawncho.com/&lt;i&gt;&lt;b&gt;Login&lt;/b&gt;&lt;/i&gt;&lt;/font&gt;" style="sketch=0;outlineConnect=0;fontColor=#232F3E;gradientColor=none;fillColor=#232F3D;strokeColor=none;dashed=0;verticalLabelPosition=bottom;verticalAlign=top;align=center;html=1;fontSize=12;fontStyle=0;aspect=fixed;pointerEvents=1;shape=mxgraph.aws4.all_products;" parent="1" vertex="1">
          <mxGeometry x="920" y="310" width="78" height="78" as="geometry" />
        </mxCell>
        <mxCell id="rlilxc9jHkQiimYPmj73-8" value="Client" style="sketch=0;outlineConnect=0;fontColor=#232F3E;gradientColor=none;fillColor=#232F3D;strokeColor=none;dashed=0;verticalLabelPosition=bottom;verticalAlign=top;align=center;html=1;fontSize=12;fontStyle=0;aspect=fixed;pointerEvents=1;shape=mxgraph.aws4.user;" parent="1" vertex="1">
          <mxGeometry x="470" y="569" width="78" height="78" as="geometry" />
        </mxCell>
        <mxCell id="rlilxc9jHkQiimYPmj73-10" value="" style="edgeStyle=orthogonalEdgeStyle;html=1;endArrow=none;elbow=vertical;startArrow=block;startFill=1;strokeColor=#545B64;rounded=0;" parent="1" edge="1">
          <mxGeometry width="100" relative="1" as="geometry">
            <mxPoint x="662" y="607.91" as="sourcePoint" />
            <mxPoint x="570" y="607.41" as="targetPoint" />
            <Array as="points">
              <mxPoint x="616" y="607.91" />
            </Array>
          </mxGeometry>
        </mxCell>
        <mxCell id="rlilxc9jHkQiimYPmj73-17" value="port 80" style="edgeLabel;html=1;align=center;verticalAlign=middle;resizable=0;points=[];fontSize=15;" parent="rlilxc9jHkQiimYPmj73-10" vertex="1" connectable="0">
          <mxGeometry x="0.1482" y="4" relative="1" as="geometry">
            <mxPoint x="9" as="offset" />
          </mxGeometry>
        </mxCell>
        <mxCell id="rlilxc9jHkQiimYPmj73-11" value="&lt;font style=&quot;font-size: 15px&quot;&gt;로그인&lt;/font&gt;" style="edgeStyle=orthogonalEdgeStyle;html=1;endArrow=none;elbow=vertical;startArrow=block;startFill=1;strokeColor=#545B64;rounded=0;" parent="1" target="rlilxc9jHkQiimYPmj73-1" edge="1">
          <mxGeometry width="100" relative="1" as="geometry">
            <mxPoint x="959" y="420" as="sourcePoint" />
            <mxPoint x="1120" y="650" as="targetPoint" />
          </mxGeometry>
        </mxCell>
        <mxCell id="rlilxc9jHkQiimYPmj73-12" value="" style="edgeStyle=orthogonalEdgeStyle;html=1;endArrow=none;elbow=vertical;startArrow=block;startFill=1;strokeColor=#545B64;rounded=1;" parent="1" target="rlilxc9jHkQiimYPmj73-5" edge="1">
          <mxGeometry width="100" relative="1" as="geometry">
            <mxPoint x="1330" y="550" as="sourcePoint" />
            <mxPoint x="1120" y="650" as="targetPoint" />
            <Array as="points">
              <mxPoint x="1330" y="349" />
            </Array>
          </mxGeometry>
        </mxCell>
        <mxCell id="rlilxc9jHkQiimYPmj73-19" value="Data 불러오기" style="edgeLabel;html=1;align=center;verticalAlign=middle;resizable=0;points=[];fontSize=15;fontStyle=2;horizontal=1;" parent="rlilxc9jHkQiimYPmj73-12" vertex="1" connectable="0">
          <mxGeometry x="0.2045" relative="1" as="geometry">
            <mxPoint as="offset" />
          </mxGeometry>
        </mxCell>
        <mxCell id="rlilxc9jHkQiimYPmj73-13" value="" style="edgeStyle=orthogonalEdgeStyle;html=1;endArrow=none;elbow=vertical;startArrow=block;startFill=1;strokeColor=#545B64;rounded=0;shape=link;dashed=1;" parent="1" edge="1">
          <mxGeometry width="100" relative="1" as="geometry">
            <mxPoint x="1020" y="608" as="sourcePoint" />
            <mxPoint x="1270" y="608" as="targetPoint" />
          </mxGeometry>
        </mxCell>
        <mxCell id="rlilxc9jHkQiimYPmj73-14" value="&lt;font style=&quot;font-size: 15px&quot;&gt;회원가입&lt;/font&gt;" style="edgeStyle=orthogonalEdgeStyle;html=1;endArrow=none;elbow=vertical;startArrow=block;startFill=1;strokeColor=#545B64;rounded=0;" parent="1" edge="1">
          <mxGeometry width="100" relative="1" as="geometry">
            <mxPoint x="959" y="830" as="sourcePoint" />
            <mxPoint x="959" y="680" as="targetPoint" />
          </mxGeometry>
        </mxCell>
        <mxCell id="rlilxc9jHkQiimYPmj73-15" value="" style="edgeStyle=orthogonalEdgeStyle;html=1;endArrow=none;elbow=vertical;startArrow=block;startFill=1;strokeColor=#545B64;rounded=1;" parent="1" target="rlilxc9jHkQiimYPmj73-4" edge="1">
          <mxGeometry x="0.232" width="100" relative="1" as="geometry">
            <mxPoint x="1329" y="690" as="sourcePoint" />
            <mxPoint x="1120" y="650" as="targetPoint" />
            <Array as="points">
              <mxPoint x="1329" y="879" />
            </Array>
            <mxPoint as="offset" />
          </mxGeometry>
        </mxCell>
        <mxCell id="rlilxc9jHkQiimYPmj73-18" value="&lt;span style=&quot;font-weight: normal&quot;&gt;Data 저장&lt;/span&gt;" style="edgeLabel;html=1;align=center;verticalAlign=middle;resizable=0;points=[];fontSize=15;fontStyle=3" parent="rlilxc9jHkQiimYPmj73-15" vertex="1" connectable="0">
          <mxGeometry x="0.2269" y="-1" relative="1" as="geometry">
            <mxPoint as="offset" />
          </mxGeometry>
        </mxCell>
        <mxCell id="N3aK5_HJuDLDFrdPinQ0-8" value="Nginx" style="sketch=0;outlineConnect=0;fontColor=#232F3E;gradientColor=none;fillColor=#424242;strokeColor=none;dashed=0;verticalLabelPosition=bottom;verticalAlign=top;align=center;html=1;fontSize=12;fontStyle=0;aspect=fixed;pointerEvents=1;shape=mxgraph.aws4.instance2;" vertex="1" parent="1">
          <mxGeometry x="724" y="640" width="80" height="80" as="geometry" />
        </mxCell>
        <mxCell id="N3aK5_HJuDLDFrdPinQ0-9" value="ELB" style="sketch=0;points=[[0,0,0],[0.25,0,0],[0.5,0,0],[0.75,0,0],[1,0,0],[0,1,0],[0.25,1,0],[0.5,1,0],[0.75,1,0],[1,1,0],[0,0.25,0],[0,0.5,0],[0,0.75,0],[1,0.25,0],[1,0.5,0],[1,0.75,0]];outlineConnect=0;fontColor=#232F3E;gradientColor=none;gradientDirection=north;fillColor=#424242;strokeColor=#ffffff;dashed=0;verticalLabelPosition=bottom;verticalAlign=top;align=center;html=1;fontSize=12;fontStyle=0;aspect=fixed;shape=mxgraph.aws4.resourceIcon;resIcon=mxgraph.aws4.elastic_load_balancing;" vertex="1" parent="1">
          <mxGeometry x="726" y="518" width="78" height="78" as="geometry" />
        </mxCell>
        <mxCell id="N3aK5_HJuDLDFrdPinQ0-11" style="edgeStyle=orthogonalEdgeStyle;rounded=0;orthogonalLoop=1;jettySize=auto;html=1;fontSize=15;" edge="1" parent="1" source="N3aK5_HJuDLDFrdPinQ0-10">
          <mxGeometry relative="1" as="geometry">
            <mxPoint x="910" y="608" as="targetPoint" />
            <Array as="points">
              <mxPoint x="870" y="608" />
              <mxPoint x="870" y="608" />
            </Array>
          </mxGeometry>
        </mxCell>
      </root>
    </mxGraphModel>
  </diagram>
</mxfile>
